<svg width="18" height="18" viewBox="0 0 18 18" fill="none" xmlns="http://www.w3.org/2000/svg">
  <path d="M11.0625 13.125V14.5H6.9375V13.125H1.4375V16.5625C1.4375 16.942 1.7455 17.25 2.125 17.25H15.875C16.2545 17.25 16.5625 16.942 16.5625 16.5625V13.125H11.0625Z" fill="#00D1D2"/>
  <path fill-rule="evenodd" clip-rule="evenodd" d="M12.4375 3.5H16.5625C16.942 3.5 17.25 3.808 17.25 4.1875V11.0625C17.25 11.442 16.942 11.75 16.5625 11.75H11.0625V9.6875H6.9375V11.75H1.4375C1.058 11.75 0.75 11.442 0.75 11.0625V4.1875C0.75 3.808 1.058 3.5 1.4375 3.5H5.5625V1.4375C5.5625 1.058 5.8705 0.75 6.25 0.75H11.75C12.1295 0.75 12.4375 1.058 12.4375 1.4375V3.5ZM6.9375 3.5H11.0625V2.125H6.9375V3.5Z" fill="#00D1D2"/>
</svg>
