<svg width="18" height="14" viewBox="0 0 18 14" fill="none" xmlns="http://www.w3.org/2000/svg">
  <path d="M6.9375 13.1875C6.65769 13.1875 6.404 13.017 6.29881 12.7557L4.03419 7.09419L3.3845 8.06906C3.25662 8.26019 3.04212 8.375 2.8125 8.375H0.75V7H2.44469L3.6155 5.24344C3.75713 5.03169 3.99981 4.91756 4.259 4.94094C4.51269 4.96775 4.732 5.13206 4.82619 5.36925L6.85775 10.4499L9.71912 1.29513C9.8085 1.00775 10.0739 0.8125 10.375 0.8125C10.3757 0.8125 10.3757 0.8125 10.3764 0.8125C10.6775 0.813188 10.9436 1.00981 11.0323 1.29787L13.3849 8.94494L14.6375 7.275C14.7668 7.10175 14.9709 7 15.1875 7H17.25V8.375H15.5312L13.675 10.85C13.5203 11.0563 13.2632 11.158 13.0067 11.1147C12.7524 11.07 12.5441 10.8864 12.4678 10.6396L10.3695 3.82169L7.59338 12.7049C7.50675 12.9826 7.25512 13.1758 6.96431 13.1868C6.95469 13.1875 6.94644 13.1875 6.9375 13.1875Z" fill="#00D1D2"/>
</svg>
