<svg width="22" height="22" viewBox="0 0 22 22" fill="none" xmlns="http://www.w3.org/2000/svg">
  <path d="M8.25 12.375H3.4375C3.058 12.375 2.75 12.067 2.75 11.6875V3.4375C2.75 3.058 3.058 2.75 3.4375 2.75H15.8125C16.192 2.75 16.5 3.058 16.5 3.4375V6.875H15.125V4.125H4.125V11H8.25V12.375Z" fill="#00D1D2"/>
  <path d="M14.4375 13.75C12.4087 13.75 10.7229 13.3107 9.625 12.573C9.625 13.0859 9.625 13.4241 9.625 13.75C9.625 14.8892 11.7796 15.8125 14.4375 15.8125C17.0954 15.8125 19.25 14.8892 19.25 13.75C19.25 13.4241 19.25 13.0859 19.25 12.573C18.1521 13.3107 16.4663 13.75 14.4375 13.75Z" fill="#00D1D2"/>
  <path d="M14.4375 17.1875C12.4087 17.1875 10.7229 16.7482 9.625 16.0105C9.625 16.5234 9.625 16.8616 9.625 17.1875C9.625 18.3267 11.7796 19.25 14.4375 19.25C17.0954 19.25 19.25 18.3267 19.25 17.1875C19.25 16.8616 19.25 16.5234 19.25 16.0105C18.1521 16.7482 16.4663 17.1875 14.4375 17.1875Z" fill="#00D1D2"/>
  <path d="M8.87494 8.712C9.34656 8.16131 10.0671 7.71169 10.9828 7.39475C10.8996 6.71688 10.3263 6.1875 9.625 6.1875C8.86669 6.1875 8.25 6.80419 8.25 7.5625C8.25 8.04375 8.49956 8.46656 8.87494 8.712Z" fill="#00D1D2"/>
  <path d="M14.4375 12.375C17.0954 12.375 19.25 11.4516 19.25 10.3125C19.25 9.17341 17.0954 8.25 14.4375 8.25C11.7796 8.25 9.625 9.17341 9.625 10.3125C9.625 11.4516 11.7796 12.375 14.4375 12.375Z" fill="#00D1D2"/>
</svg>
