<svg width="22" height="22" viewBox="0 0 22 22" fill="none" xmlns="http://www.w3.org/2000/svg">
  <path d="M12.375 4.125H9.625C9.2455 4.125 8.9375 4.433 8.9375 4.8125V17.1875C8.9375 17.567 9.2455 17.875 9.625 17.875H12.375C12.7545 17.875 13.0625 17.567 13.0625 17.1875V4.8125C13.0625 4.433 12.7545 4.125 12.375 4.125Z" fill="#26262C"/>
  <path d="M6.1875 11.6875H3.4375C3.058 11.6875 2.75 11.9955 2.75 12.375V17.1875C2.75 17.567 3.058 17.875 3.4375 17.875H6.1875C6.567 17.875 6.875 17.567 6.875 17.1875V12.375C6.875 11.9955 6.567 11.6875 6.1875 11.6875Z" fill="#26262C"/>
  <path d="M18.5625 8.25H15.8125C15.433 8.25 15.125 8.558 15.125 8.9375V17.1875C15.125 17.567 15.433 17.875 15.8125 17.875H18.5625C18.942 17.875 19.25 17.567 19.25 17.1875V8.9375C19.25 8.558 18.942 8.25 18.5625 8.25Z" fill="#26262C"/>
</svg>
