<svg width="155" height="32" viewBox="0 0 155 32" fill="none" xmlns="http://www.w3.org/2000/svg">
  <path d="M52.2254 12.5187C52.2254 12.1474 51.9245 11.8465 51.5533 11.8465H49.0689C48.6977 11.8465 48.3967 11.5455 48.3967 11.1743V9.37823C48.3967 9.00699 48.6977 8.70605 49.0689 8.70605H58.9741C59.3454 8.70605 59.6464 9.00699 59.6464 9.37823V11.1743C59.6464 11.5455 59.3454 11.8465 58.9741 11.8465H56.4898C56.1185 11.8465 55.8176 12.1474 55.8176 12.5187V22.8542C55.8176 23.2253 55.5166 23.5263 55.1454 23.5263H52.8977C52.5264 23.5263 52.2254 23.2253 52.2254 22.8542V12.5187Z" fill="#00D1D2"/>
  <path d="M71.2335 18.8216C71.4918 18.5359 71.9241 18.442 72.2395 18.663L74.0716 19.9468C74.3693 20.1555 74.4497 20.5651 74.225 20.851C73.5951 21.6526 72.8187 22.3077 71.8958 22.8164C70.7916 23.4187 69.5943 23.7199 68.3036 23.7199C66.2244 23.7199 64.4462 22.9814 62.9693 21.5044C61.4922 20.013 60.7537 18.2205 60.7537 16.1269C60.7537 14.019 61.4851 12.2265 62.9477 10.7495C64.4248 9.25813 66.21 8.51245 68.3036 8.51245C69.6087 8.51245 70.8132 8.82076 71.9174 9.43737C72.8396 9.93399 73.6156 10.5817 74.2455 11.3806C74.4709 11.6665 74.3899 12.0769 74.0913 12.2852C73.2578 12.867 72.6366 13.3004 72.2278 13.5857C71.9085 13.8086 71.4715 13.7081 71.2103 13.4192C70.9317 13.111 70.601 12.852 70.218 12.6423C69.6301 12.2982 68.992 12.1261 68.3036 12.1261C67.2139 12.1261 66.2889 12.5205 65.5289 13.3091C64.7689 14.0835 64.3888 15.0228 64.3888 16.1269C64.3888 17.231 64.7689 18.1703 65.5289 18.9447C66.2889 19.719 67.2139 20.1062 68.3036 20.1062C69.0064 20.1062 69.6516 19.9414 70.2395 19.6115C70.6186 19.3989 70.95 19.1357 71.2335 18.8216Z" fill="#00D1D2"/>
  <path d="M94.0721 10.6474C94.3289 10.9069 94.2871 11.325 94.0085 11.5609L92.3636 12.9537C92.0771 13.1964 91.6509 13.1522 91.376 12.8964C90.623 12.1965 89.7388 11.8465 88.7233 11.8465C87.6049 11.8465 86.6584 12.2623 85.8841 13.094C85.1097 13.9258 84.7226 14.9367 84.7226 16.1269C84.7226 17.3028 85.1097 18.3209 85.8841 19.1814C86.6584 20.0274 87.6049 20.4505 88.7233 20.4505C90.241 20.4505 91.2636 20.051 91.7914 19.252C92.0308 18.8895 91.7045 18.4715 91.27 18.4715H88.6427C88.2715 18.4715 87.9706 18.1706 87.9706 17.7993V16.2614C87.9706 15.8901 88.2715 15.5891 88.6427 15.5891H95.3646C95.7358 15.5891 96.0385 15.8907 96.0227 16.2616C95.9212 18.6512 95.2662 20.4633 94.0578 21.698C92.7386 23.0459 90.9604 23.7199 88.7233 23.7199C86.5867 23.7199 84.78 22.9814 83.3029 21.5044C81.8259 20.013 81.0874 18.2205 81.0874 16.1269C81.0874 14.019 81.8259 12.2265 83.3029 10.7495C84.78 9.25813 86.5867 8.51245 88.7233 8.51245C89.8992 8.51245 90.9891 8.74906 91.9929 9.22227C92.7981 9.58519 93.4912 10.0602 94.0721 10.6474Z" fill="#00D1D2"/>
  <path d="M101.777 22.8542C101.777 23.2253 101.476 23.5263 101.105 23.5263H98.8568C98.4855 23.5263 98.1846 23.2253 98.1846 22.8542V9.37823C98.1846 9.00699 98.4855 8.70605 98.8568 8.70605H104.315C105.95 8.70605 107.204 9.19361 108.079 10.1687C108.954 11.1438 109.391 12.3054 109.391 13.6533C109.391 14.7719 109.083 15.7756 108.466 16.6647C108.038 17.2868 107.472 17.7603 106.768 18.085C106.339 18.2829 106.136 18.8228 106.408 19.2087L108.708 22.4665C109.022 22.9118 108.704 23.5263 108.159 23.5263H105.65C105.421 23.5263 105.208 23.4101 105.084 23.2179L102.161 18.6749C102.123 18.6152 102.056 18.5791 101.985 18.5791C101.87 18.5791 101.777 18.6726 101.777 18.7878V22.8542ZM104.143 11.8465H102.449C102.078 11.8465 101.777 12.1474 101.777 12.5187V14.8095C101.777 15.1806 102.078 15.4816 102.449 15.4816H104.143C104.688 15.4816 105.089 15.3024 105.347 14.9439C105.62 14.5855 105.756 14.1552 105.756 13.6533C105.756 13.1514 105.62 12.7285 105.347 12.3842C105.089 12.0257 104.688 11.8465 104.143 11.8465Z" fill="#00D1D2"/>
  <path d="M111.146 16.1269C111.146 14.019 111.878 12.2265 113.341 10.7495C114.817 9.25813 116.603 8.51245 118.696 8.51245C120.804 8.51245 122.59 9.25813 124.052 10.7495C125.529 12.2265 126.268 14.019 126.268 16.1269C126.268 18.2205 125.529 20.013 124.052 21.5044C122.59 22.9814 120.804 23.7199 118.696 23.7199C116.617 23.7199 114.839 22.9814 113.362 21.5044C111.885 20.013 111.146 18.2205 111.146 16.1269ZM115.922 13.3091C115.162 14.0835 114.782 15.0228 114.782 16.1269C114.782 17.231 115.162 18.1703 115.922 18.9447C116.682 19.719 117.607 20.1062 118.696 20.1062C119.801 20.1062 120.733 19.719 121.493 18.9447C122.267 18.1703 122.654 17.231 122.654 16.1269C122.654 15.0228 122.267 14.0835 121.493 13.3091C120.718 12.5205 119.786 12.1261 118.696 12.1261C117.607 12.1261 116.682 12.5205 115.922 13.3091Z" fill="#00D1D2"/>
  <path d="M138.535 22.1712C137.388 23.2036 136.018 23.7199 134.427 23.7199C132.834 23.7199 131.458 23.2036 130.297 22.1712C129.149 21.1244 128.575 19.7765 128.575 18.1273V9.37823C128.575 9.00699 128.876 8.70605 129.248 8.70605H131.517C131.888 8.70605 132.189 9.00699 132.189 9.37823V18.1273C132.189 18.7726 132.411 19.3032 132.856 19.7191C133.316 20.1349 133.839 20.3429 134.427 20.3429C135.015 20.3429 135.53 20.1349 135.975 19.7191C136.434 19.3032 136.663 18.7726 136.663 18.1273V9.37823C136.663 9.00699 136.964 8.70605 137.336 8.70605H139.605C139.976 8.70605 140.277 9.00699 140.277 9.37823V18.1273C140.277 19.7765 139.696 21.1244 138.535 22.1712Z" fill="#00D1D2"/>
  <path d="M147.002 22.8542C147.002 23.2253 146.701 23.5263 146.33 23.5263H144.082C143.71 23.5263 143.409 23.2253 143.409 22.8542V9.37823C143.409 9.00699 143.71 8.70605 144.082 8.70605H149.54C151.175 8.70605 152.429 9.19361 153.304 10.1687C154.179 11.1438 154.616 12.3054 154.616 13.6533C154.616 15.0156 154.179 16.1771 153.304 17.1379C152.429 18.0987 151.175 18.5791 149.54 18.5791H147.674C147.303 18.5791 147.002 18.8801 147.002 19.2513V22.8542ZM149.368 11.8465H147.674C147.303 11.8465 147.002 12.1474 147.002 12.5187V14.8095C147.002 15.1806 147.303 15.4816 147.674 15.4816H149.368C149.912 15.4816 150.315 15.3024 150.573 14.9439C150.844 14.5855 150.982 14.1552 150.982 13.6533C150.982 13.1514 150.844 12.7285 150.573 12.3842C150.315 12.0257 149.912 11.8465 149.368 11.8465Z" fill="#00D1D2"/>
  <path d="M29.1796 0.803224C33.3193 0.803224 35.9064 5.28444 33.8366 8.86941L27.8544 19.2311L21.872 29.5926C19.8023 33.1776 14.6278 33.1776 12.558 29.5926L6.57575 19.2311L0.593457 8.86941C-1.47633 5.28444 1.1109 0.803223 5.25048 0.803223L17.215 0.803224H29.1796Z" fill="#00D1D2"/>
  <path d="M16.4786 7.56198C15.9561 7.56198 15.6334 6.99199 15.9023 6.54396L17.6163 3.68719C17.7378 3.48473 17.9566 3.36084 18.1927 3.36084H33.5505C33.7938 3.36084 34.0181 3.49231 34.1371 3.70459L35.7368 6.56136C35.9877 7.00942 35.6639 7.56198 35.1503 7.56198H16.4786Z" fill="#00D1D2"/>
  <path d="M15.3873 14.382C15.0176 13.9452 15.3282 13.2756 15.9004 13.2756H18.5502C19.0553 13.2756 19.3799 13.8119 19.1457 14.2595L14.1431 23.8203C13.9504 24.1883 13.3927 23.9484 13.5273 23.5555L16.1761 15.821C16.2527 15.5973 16.2061 15.3497 16.0533 15.1691L15.3873 14.382Z" fill="#00D1D2"/>
  <path d="M25.1805 13.6143C25.3002 13.4049 25.5229 13.2756 25.7641 13.2756H38.9388C39.1763 13.2756 39.3961 13.401 39.5171 13.6052L41.4092 16.798C41.6747 17.246 41.3518 17.8129 40.8309 17.8129H28.6289C28.3834 17.8129 28.1575 17.9466 28.0394 18.1619L25.9199 22.0269C25.6742 22.4749 25.9984 23.0223 26.5092 23.0223H35.5077C36.0163 23.0223 36.3407 23.5653 36.0996 24.0132L34.4708 27.0381C34.3536 27.2557 34.1263 27.3914 33.879 27.3914H18.4662C17.95 27.3914 17.6264 26.834 17.8826 26.3859L25.1805 13.6143Z" fill="#00D1D2"/>
</svg>
