<svg width="17" height="15" viewBox="0 0 17 15" fill="none" xmlns="http://www.w3.org/2000/svg">
<path d="M10.1598 4.98028V3.03983H14.7371V0.083252H2.27302V3.03983H6.85084V4.97871C3.1304 5.14437 0.333008 5.85867 0.333008 6.71437C0.333008 7.57006 3.13175 8.28436 6.85084 8.45106V14.6666H10.1609V8.45054C13.8746 8.28436 16.6663 7.57058 16.6663 6.71567C16.6663 5.86076 13.8746 5.14698 10.1609 4.9808L10.1598 4.98028ZM10.1609 7.92408V7.92251C10.0675 7.92825 9.58768 7.95617 8.51932 7.95617C7.66517 7.95617 7.06424 7.93269 6.85245 7.92199V7.9246C3.56555 7.78346 1.11208 7.22856 1.11208 6.56462C1.11208 5.90067 3.56582 5.34656 6.85245 5.20516V7.37179C7.06774 7.38614 7.68346 7.42136 8.53331 7.42136C9.55404 7.42136 10.0672 7.38014 10.1614 7.37179V5.20516C13.4419 5.34682 15.8897 5.90224 15.8897 6.56384C15.8897 7.22543 13.4408 7.78111 10.1614 7.92277" fill="url(#paint0_linear)"/>
<defs>
<linearGradient id="paint0_linear" x1="8.49967" y1="0.083252" x2="8.49967" y2="14.6666" gradientUnits="userSpaceOnUse">
<stop stop-color="#019FD1"/>
<stop offset="1" stop-color="#2DCE8A"/>
</linearGradient>
</defs>
</svg>
