<svg width="22" height="22" viewBox="0 0 22 22" fill="none" xmlns="http://www.w3.org/2000/svg">
  <path d="M18.5625 17.875H17.1875V4.125H5.5V2.75H17.875C18.2545 2.75 18.5625 3.058 18.5625 3.4375V17.875Z" fill="#26262C"/>
  <path fill-rule="evenodd" clip-rule="evenodd" d="M4.125 5.5H15.125C15.5045 5.5 15.8125 5.808 15.8125 6.1875V18.5625C15.8125 18.942 15.5045 19.25 15.125 19.25H4.125C3.7455 19.25 3.4375 18.942 3.4375 18.5625V6.1875C3.4375 5.808 3.7455 5.5 4.125 5.5ZM6.1875 15.8125H10.3125V14.4375H6.1875V15.8125ZM13.0625 13.0625H6.1875V11.6875H13.0625V13.0625ZM6.1875 10.3125H13.0625V8.9375H6.1875V10.3125Z" fill="#26262C"/>
</svg>
