<svg width="22" height="22" viewBox="0 0 22 22" fill="none" xmlns="http://www.w3.org/2000/svg">
  <path d="M6.875 16.8438C6.875 17.6639 6.05413 17.8386 5.81625 17.8723C5.26006 17.8571 4.8125 17.4027 4.8125 16.8438V4.125H11V2.75H4.125C3.7455 2.75 3.4375 3.058 3.4375 3.4375V16.8438C3.4375 18.1706 4.51688 19.25 5.84375 19.25H16.1562C17.4831 19.25 18.5625 18.1706 18.5625 16.8438V15.8125H6.875V16.8438Z" fill="#26262C"/>
  <path d="M15.125 11.0001C14.1027 11.0001 13.1553 10.677 12.375 10.1311V14.4376L15.125 12.3751L17.875 14.4376V10.1311C17.0947 10.677 16.1473 11.0001 15.125 11.0001Z" fill="#26262C"/>
  <path d="M15.125 9.625C17.0235 9.625 18.5625 8.08598 18.5625 6.1875C18.5625 4.28902 17.0235 2.75 15.125 2.75C13.2265 2.75 11.6875 4.28902 11.6875 6.1875C11.6875 8.08598 13.2265 9.625 15.125 9.625Z" fill="#26262C"/>
</svg>
