<svg width="14" height="18" viewBox="0 0 14 18" fill="none" xmlns="http://www.w3.org/2000/svg">
  <path d="M9.37944 10.3909C8.6665 10.8096 7.86487 11.0626 7 11.0626C6.13513 11.0626 5.3335 10.8096 4.62056 10.3909C2.11462 10.5552 0.125 12.6411 0.125 15.1876V16.3769L0.602812 16.5302C0.694937 16.5591 2.90112 17.2501 7 17.2501C11.0989 17.2501 13.3051 16.5591 13.3972 16.5302L13.875 16.3769V15.1876C13.875 12.6411 11.8854 10.5552 9.37944 10.3909Z" fill="#26262C"/>
  <path d="M7 9.6875C9.32306 9.6875 11.125 7.10044 11.125 4.875C11.125 2.60006 9.27494 0.75 7 0.75C4.72506 0.75 2.875 2.60006 2.875 4.875C2.875 7.10044 4.67694 9.6875 7 9.6875Z" fill="#26262C"/>
</svg>
